<svg width="11" height="11" viewBox="0 0 11 11" fill="none" xmlns="http://www.w3.org/2000/svg">
<path d="M6.24417 5.50003L10.6194 1.12475C10.7059 1.02379 10.7511 0.893914 10.746 0.761085C10.7408 0.628256 10.6858 0.502255 10.5918 0.408261C10.4978 0.314266 10.3718 0.259202 10.2389 0.254071C10.1061 0.248941 9.97624 0.294122 9.87528 0.380586L5.5 4.75586L1.12472 0.375308C1.02534 0.275925 0.890548 0.220093 0.749999 0.220093C0.609451 0.220093 0.47466 0.275925 0.375277 0.375308C0.275895 0.47469 0.220062 0.609482 0.220062 0.75003C0.220062 0.890578 0.275895 1.02537 0.375277 1.12475L4.75583 5.50003L0.375277 9.87531C0.320028 9.92263 0.275157 9.98085 0.243478 10.0463C0.211799 10.1118 0.193997 10.1831 0.191189 10.2558C0.188382 10.3285 0.200629 10.401 0.227163 10.4687C0.253697 10.5364 0.293944 10.5979 0.345378 10.6494C0.396813 10.7008 0.458324 10.7411 0.526051 10.7676C0.593778 10.7941 0.666259 10.8064 0.738944 10.8036C0.811629 10.8008 0.882949 10.783 0.948428 10.7513C1.01391 10.7196 1.07213 10.6747 1.11944 10.6195L5.5 6.2442L9.87528 10.6195C9.97624 10.7059 10.1061 10.7511 10.2389 10.746C10.3718 10.7409 10.4978 10.6858 10.5918 10.5918C10.6858 10.4978 10.7408 10.3718 10.746 10.239C10.7511 10.1061 10.7059 9.97628 10.6194 9.87531L6.24417 5.50003Z" fill="white"/>
</svg>
