<?xml version="1.0" encoding="utf-8"?>
<!-- Generator: Adobe Illustrator 24.0.1, SVG Export Plug-In . SVG Version: 6.00 Build 0)  -->
<svg version="1.1" id="Layer_1" xmlns="http://www.w3.org/2000/svg" xmlns:xlink="http://www.w3.org/1999/xlink" x="0px" y="0px"
	 viewBox="0 0 11 11" style="enable-background:new 0 0 11 11;" xml:space="preserve">
<path d="M6.2,5.5l4.4-4.4c0.1-0.1,0.1-0.2,0.1-0.4c0-0.1-0.1-0.3-0.2-0.4c-0.1-0.1-0.2-0.1-0.4-0.2c-0.1,0-0.3,0-0.4,0.1L5.5,4.8
	L1.1,0.4C1,0.3,0.9,0.2,0.7,0.2c-0.1,0-0.3,0.1-0.4,0.2C0.3,0.5,0.2,0.6,0.2,0.8S0.3,1,0.4,1.1l4.4,4.4L0.4,9.9
	C0.3,9.9,0.3,10,0.2,10c0,0.1,0,0.1-0.1,0.2c0,0.1,0,0.1,0,0.2c0,0.1,0.1,0.1,0.1,0.2c0.1,0.1,0.1,0.1,0.2,0.1s0.1,0,0.2,0
	s0.1,0,0.2-0.1c0.1,0,0.1-0.1,0.2-0.1l4.4-4.4l4.4,4.4c0.1,0.1,0.2,0.1,0.4,0.1c0.1,0,0.3-0.1,0.4-0.2s0.1-0.2,0.2-0.4
	c0-0.1,0-0.3-0.1-0.4L6.2,5.5z"/>
</svg>
