<svg width="6" height="10" viewBox="0 0 6 10" fill="none" xmlns="http://www.w3.org/2000/svg">
<path fill-rule="evenodd" clip-rule="evenodd" d="M0.4845 0.234499C0.519334 0.199577 0.560716 0.171869 0.606275 0.152965C0.651833 0.13406 0.700674 0.124329 0.75 0.124329C0.799325 0.124329 0.848166 0.13406 0.893725 0.152965C0.939284 0.171869 0.980666 0.199577 1.0155 0.234499L5.5155 4.7345C5.55042 4.76933 5.57813 4.81072 5.59703 4.85627C5.61594 4.90183 5.62567 4.95067 5.62567 5C5.62567 5.04932 5.61594 5.09817 5.59703 5.14372C5.57813 5.18928 5.55042 5.23066 5.5155 5.2655L1.0155 9.7655C0.945085 9.83591 0.849582 9.87547 0.75 9.87547C0.650418 9.87547 0.554915 9.83591 0.4845 9.7655C0.414085 9.69508 0.374526 9.59958 0.374526 9.5C0.374526 9.40042 0.414085 9.30491 0.4845 9.2345L4.71975 5L0.4845 0.765499C0.449577 0.730665 0.42187 0.689283 0.402965 0.643724C0.38406 0.598165 0.37433 0.549324 0.37433 0.499999C0.37433 0.450674 0.38406 0.401833 0.402965 0.356274C0.42187 0.310715 0.449577 0.269333 0.4845 0.234499Z" fill="black"/>
</svg>
