<svg width="8" height="16" viewBox="0 0 8 16" fill="none" xmlns="http://www.w3.org/2000/svg">
<path fill-rule="evenodd" clip-rule="evenodd" d="M0.226779 0.851779C0.27903 0.799395 0.341103 0.757835 0.409441 0.729477C0.477779 0.70112 0.551041 0.686523 0.625029 0.686523C0.699017 0.686523 0.772278 0.70112 0.840617 0.729477C0.908955 0.757835 0.971027 0.799395 1.02328 0.851779L7.77328 7.60178C7.82566 7.65403 7.86722 7.7161 7.89558 7.78444C7.92394 7.85278 7.93853 7.92604 7.93853 8.00003C7.93853 8.07402 7.92394 8.14728 7.89558 8.21562C7.86722 8.28395 7.82566 8.34603 7.77328 8.39828L1.02328 15.1483C0.917656 15.2539 0.774401 15.3132 0.625029 15.3132C0.475656 15.3132 0.332401 15.2539 0.226779 15.1483C0.121156 15.0427 0.0618179 14.8994 0.0618179 14.75C0.0618179 14.6007 0.121156 14.4574 0.226779 14.3518L6.57965 8.00003L0.226779 1.64828C0.174395 1.59603 0.132834 1.53396 0.104477 1.46562C0.0761196 1.39728 0.0615234 1.32402 0.0615234 1.25003C0.0615234 1.17604 0.0761196 1.10278 0.104477 1.03444C0.132834 0.966103 0.174395 0.90403 0.226779 0.851779Z" fill="#D0D0D0"/>
</svg>
