<svg width="6" height="10" viewBox="0 0 6 10" fill="none" xmlns="http://www.w3.org/2000/svg">
<path fill-rule="evenodd" clip-rule="evenodd" d="M5.5155 0.234499C5.55042 0.269333 5.57813 0.310715 5.59703 0.356274C5.61594 0.401833 5.62567 0.450674 5.62567 0.499999C5.62567 0.549324 5.61594 0.598165 5.59703 0.643724C5.57813 0.689283 5.55042 0.730665 5.5155 0.765499L1.28025 5L5.5155 9.2345C5.58591 9.30491 5.62547 9.40042 5.62547 9.5C5.62547 9.59958 5.58591 9.69508 5.5155 9.7655C5.44508 9.83591 5.34958 9.87547 5.25 9.87547C5.15042 9.87547 5.05491 9.83591 4.9845 9.7655L0.484499 5.2655C0.449576 5.23066 0.421869 5.18928 0.402964 5.14372C0.384059 5.09817 0.374329 5.04932 0.374329 5C0.374329 4.95067 0.384059 4.90183 0.402964 4.85627C0.421869 4.81072 0.449576 4.76933 0.484499 4.7345L4.9845 0.234499C5.01933 0.199577 5.06072 0.171869 5.10627 0.152965C5.15183 0.13406 5.20067 0.124329 5.25 0.124329C5.29932 0.124329 5.34817 0.13406 5.39372 0.152965C5.43928 0.171869 5.48067 0.199577 5.5155 0.234499Z" fill="black"/>
</svg>
