<svg xmlns="http://www.w3.org/2000/svg" viewBox="0 0 492.71 177.84"><defs><style>.cls-1{fill:#003a7d;}.cls-2{fill:#2c6cdd;}</style></defs><title>Asset 2</title><g id="Layer_2" data-name="Layer 2"><g id="레이어_10" data-name="레이어 10"><path class="cls-1" d="M58.07,34.67,60.94,33a.09.09,0,0,1,.1,0l2.74,1.6h0a3.15,3.15,0,0,0,.64.5L85,47a3.24,3.24,0,0,0,4.86-2.81v-26a3.24,3.24,0,0,0-1.61-2.81L62.48.41a2.88,2.88,0,0,0-3,0L1.47,34A2.89,2.89,0,0,0,0,36.54V174.67a3.51,3.51,0,0,0,1.66,2.87,2.86,2.86,0,0,0,2.75-.1l23-13.3A3,3,0,0,0,29,161.52V51.61a.1.1,0,0,1,0-.09L57.72,34.94A3.24,3.24,0,0,0,58.07,34.67Z"/><path class="cls-2" d="M123.47.42a3.49,3.49,0,0,0-3.32,0L97.32,13.6a3,3,0,0,0-1.52,2.62V83.84a.1.1,0,0,1,0,.08L68.18,99.84a.07.07,0,0,1-.09,0L39.33,83.14a2.86,2.86,0,0,0-2.75-.1,3.47,3.47,0,0,0-1.66,2.88L35,112.21a2.88,2.88,0,0,0,1.46,2.53l30.2,17.7a3.77,3.77,0,0,0,3.32,0l53.32-30.78a2.89,2.89,0,0,0,1.47-2.55V2.85A2.88,2.88,0,0,0,123.47.42Z"/><path class="cls-1" d="M228.13,130.14H207.9L202,111.8H172.72l-5.81,18.34H146.79l30-82.43h22ZM197.78,97.55l-8.85-27.71a36.3,36.3,0,0,1-1.38-7.42h-.46a31.19,31.19,0,0,1-1.44,7.19l-9,27.94Z"/><path class="cls-1" d="M300.56,47.71l-26.84,53.11v29.32H255.15v-29L229,47.71h21.21l13.28,30.75q.35.87,1.89,6.73h.23a30.66,30.66,0,0,1,1.78-6.5l13.51-31Z"/><path class="cls-1" d="M321.65,130.14V47.71h29.2q43.92,0,43.92,40.18,0,19.26-12,30.75t-31.93,11.5Zm18.57-67.32v52.26h9.19q12.07,0,18.94-7.25t6.87-19.71q0-11.79-6.81-18.54T349.3,62.82Z"/><path class="cls-1" d="M492.71,130.14H472.47l-5.86-18.34H437.29l-5.8,18.34H411.37l30-82.43h22ZM462.36,97.55,453.5,69.84a36.3,36.3,0,0,1-1.38-7.42h-.46a31.71,31.71,0,0,1-1.43,7.19l-9,27.94Z"/></g></g></svg>