<svg xmlns="http://www.w3.org/2000/svg" viewBox="0 0 492.7 177.8"><defs><style>.cls-1{fill:#fff;}.cls-2{fill:#e7b978;}</style></defs><title>Asset 2</title><g id="Layer_2" data-name="Layer 2"><g id="폰트_레이어" data-name="폰트 레이어"><path class="cls-1" d="M58.1,34.7,60.9,33H61l2.8,1.6h0l.6.5L85,47a3.2,3.2,0,0,0,4.8-2.8V18.1a3.3,3.3,0,0,0-1.6-2.8L62.5.4a3.2,3.2,0,0,0-3,0L1.5,34A2.7,2.7,0,0,0,0,36.5V174.7a3.3,3.3,0,0,0,1.7,2.8,2.6,2.6,0,0,0,2.7-.1l23-13.3a2.8,2.8,0,0,0,1.5-2.6V51.6H29L57.7,34.9Z"/><path class="cls-2" d="M123.5.4a3.7,3.7,0,0,0-3.4,0L97.3,13.6a3,3,0,0,0-1.5,2.6V83.8h0L68.2,99.8c0,.1-.1.1-.1,0L39.3,83.1a2.9,2.9,0,0,0-2.7-.1,3.6,3.6,0,0,0-1.7,2.9v26.3a2.7,2.7,0,0,0,1.4,2.5l30.2,17.7a2.7,2.7,0,0,0,1.7.4,2.2,2.2,0,0,0,1.7-.4l53.3-30.7a3,3,0,0,0,1.4-2.6V2.8A2.9,2.9,0,0,0,123.5.4Z"/><path class="cls-1" d="M228.1,130.1H207.9L202,111.8H172.7l-5.8,18.3H146.8l30-82.4h22ZM197.8,97.5l-8.9-27.7a40.7,40.7,0,0,1-1.4-7.4h-.4a36.6,36.6,0,0,1-1.4,7.2l-9,27.9Z"/><path class="cls-1" d="M300.6,47.7l-26.9,53.1v29.3H255.2V101.2L229,47.7h21.2l13.3,30.8c.2.5.8,2.8,1.9,6.7h.2a29.2,29.2,0,0,1,1.8-6.5l13.5-31Z"/><path class="cls-1" d="M321.6,130.1V47.7h29.3c29.2,0,43.9,13.4,43.9,40.2,0,12.8-4,23.1-12,30.7s-18.7,11.5-31.9,11.5Zm18.6-67.3v52.3h9.2c8.1,0,14.4-2.4,19-7.3s6.8-11.4,6.8-19.7-2.2-14-6.8-18.5-10.9-6.8-19.1-6.8Z"/><path class="cls-1" d="M492.7,130.1H472.5l-5.9-18.3H437.3l-5.8,18.3H411.4l30-82.4h22ZM462.4,97.5l-8.9-27.7a40.7,40.7,0,0,1-1.4-7.4h-.4a30.8,30.8,0,0,1-1.5,7.2l-8.9,27.9Z"/></g></g></svg>