<svg width="13" height="13" viewBox="0 0 13 13" fill="none" xmlns="http://www.w3.org/2000/svg">
<path d="M12.75 6.5C12.75 3.04813 9.95188 0.25 6.5 0.25C3.04813 0.25 0.250001 3.04812 0.250001 6.5C0.250001 9.95188 3.04813 12.75 6.5 12.75C9.95187 12.75 12.75 9.95188 12.75 6.5ZM3.66875 6.675C3.58936 6.59563 3.5411 6.49041 3.53272 6.37847C3.52435 6.26652 3.55643 6.15529 3.62313 6.065L3.66813 6.01188L6.16875 3.51187C6.24815 3.43233 6.3535 3.38396 6.46558 3.37558C6.57767 3.36721 6.68903 3.39938 6.77938 3.46625L6.83188 3.51187L9.33188 6.0125C9.41575 6.09614 9.46484 6.20843 9.46929 6.3268C9.47374 6.44516 9.43322 6.56082 9.35587 6.65053C9.27851 6.74023 9.17007 6.79732 9.05234 6.81033C8.93461 6.82333 8.81632 6.79128 8.72125 6.72063L8.66875 6.67563L6.96875 4.97438L6.96875 9.15625C6.96888 9.26973 6.92783 9.37939 6.85324 9.46491C6.77865 9.55042 6.67557 9.60597 6.56313 9.62125L6.5 9.625C6.38673 9.625 6.27729 9.58397 6.19192 9.50952C6.10655 9.43507 6.05103 9.33222 6.03563 9.22L6.03125 9.15625L6.03125 4.975L4.33125 6.675C4.25185 6.75455 4.1465 6.80292 4.03442 6.8113C3.92233 6.81967 3.81097 6.78749 3.72063 6.72063L3.66813 6.675L3.66875 6.675Z" fill="white"/>
</svg>
