<svg width="22" height="28" viewBox="0 0 22 28" fill="none" xmlns="http://www.w3.org/2000/svg">
<path d="M19.5001 12.3H17.8001V7.20002C17.8001 3.46002 14.7401 0.400024 11 0.400024C7.26005 0.400024 4.20005 3.46002 4.20005 7.20002V12.3H2.50005C1.65005 12.3 0.800049 13.15 0.800049 14V25.9C0.800049 26.75 1.65005 27.6 2.50005 27.6H19.5001C20.35 27.6 21.2001 26.75 21.2001 25.9V14C21.2001 13.15 20.35 12.3 19.5001 12.3ZM12.7001 24.2H9.30005L9.98005 20.46C9.13005 20.12 8.45005 19.1 8.45005 18.25C8.45005 16.89 9.64005 15.7 11 15.7C12.3601 15.7 13.55 16.89 13.55 18.25C13.55 19.27 13.0401 20.12 12.0201 20.46L12.7001 24.2ZM14.4001 12.3H7.60005V7.20002C7.60005 5.33002 9.13005 3.80002 11 3.80002C12.8701 3.80002 14.4001 5.33002 14.4001 7.20002V12.3Z" fill="#C8994D"/>
</svg>
