<svg width="20" height="20" viewBox="0 0 20 20" fill="none" xmlns="http://www.w3.org/2000/svg">
<path d="M5 0.625C5 0.45924 4.93415 0.300269 4.81694 0.183058C4.69973 0.065848 4.54076 0 4.375 0C4.20924 0 4.05027 0.065848 3.93306 0.183058C3.81585 0.300269 3.75 0.45924 3.75 0.625V1.25H2.5C1.83696 1.25 1.20107 1.51339 0.732233 1.98223C0.263392 2.45107 0 3.08696 0 3.75L0 5H20V3.75C20 3.08696 19.7366 2.45107 19.2678 1.98223C18.7989 1.51339 18.163 1.25 17.5 1.25H16.25V0.625C16.25 0.45924 16.1842 0.300269 16.0669 0.183058C15.9497 0.065848 15.7908 0 15.625 0C15.4592 0 15.3003 0.065848 15.1831 0.183058C15.0658 0.300269 15 0.45924 15 0.625V1.25H5V0.625ZM20 17.5V6.25H0V17.5C0 18.163 0.263392 18.7989 0.732233 19.2678C1.20107 19.7366 1.83696 20 2.5 20H17.5C18.163 20 18.7989 19.7366 19.2678 19.2678C19.7366 18.7989 20 18.163 20 17.5ZM13.5675 11.0675L9.8175 14.8175C9.75944 14.8757 9.69047 14.9219 9.61454 14.9534C9.53861 14.9849 9.45721 15.0011 9.375 15.0011C9.29279 15.0011 9.21139 14.9849 9.13546 14.9534C9.05953 14.9219 8.99056 14.8757 8.9325 14.8175L7.0575 12.9425C6.94014 12.8251 6.87421 12.666 6.87421 12.5C6.87421 12.334 6.94014 12.1749 7.0575 12.0575C7.17486 11.9401 7.33403 11.8742 7.5 11.8742C7.66597 11.8742 7.82514 11.9401 7.9425 12.0575L9.375 13.4913L12.6825 10.1825C12.7999 10.0651 12.959 9.99921 13.125 9.99921C13.291 9.99921 13.4501 10.0651 13.5675 10.1825C13.6849 10.2999 13.7508 10.459 13.7508 10.625C13.7508 10.791 13.6849 10.9501 13.5675 11.0675Z" fill="#C8994D"/>
</svg>
