<svg width="13" height="13" viewBox="0 0 13 13" fill="none" xmlns="http://www.w3.org/2000/svg">
<path d="M6.5 13C8.22391 13 9.87721 12.3152 11.0962 11.0962C12.3152 9.87721 13 8.22391 13 6.5C13 4.77609 12.3152 3.12279 11.0962 1.90381C9.87721 0.68482 8.22391 0 6.5 0C4.77609 0 3.12279 0.68482 1.90381 1.90381C0.68482 3.12279 0 4.77609 0 6.5C0 8.22391 0.68482 9.87721 1.90381 11.0962C3.12279 12.3152 4.77609 13 6.5 13V13ZM2.84375 4.0625H10.1562C10.264 4.0625 10.3673 4.1053 10.4435 4.18149C10.5197 4.25767 10.5625 4.36101 10.5625 4.46875C10.5625 4.57649 10.5197 4.67983 10.4435 4.75601C10.3673 4.8322 10.264 4.875 10.1562 4.875H2.84375C2.73601 4.875 2.63267 4.8322 2.55649 4.75601C2.4803 4.67983 2.4375 4.57649 2.4375 4.46875C2.4375 4.36101 2.4803 4.25767 2.55649 4.18149C2.63267 4.1053 2.73601 4.0625 2.84375 4.0625ZM4.0625 6.90625C4.0625 6.79851 4.1053 6.69517 4.18149 6.61899C4.25767 6.5428 4.36101 6.5 4.46875 6.5H8.53125C8.63899 6.5 8.74233 6.5428 8.81851 6.61899C8.8947 6.69517 8.9375 6.79851 8.9375 6.90625C8.9375 7.01399 8.8947 7.11733 8.81851 7.19351C8.74233 7.2697 8.63899 7.3125 8.53125 7.3125H4.46875C4.36101 7.3125 4.25767 7.2697 4.18149 7.19351C4.1053 7.11733 4.0625 7.01399 4.0625 6.90625ZM5.6875 9.34375C5.6875 9.23601 5.7303 9.13267 5.80649 9.05649C5.88267 8.9803 5.98601 8.9375 6.09375 8.9375H6.90625C7.01399 8.9375 7.11733 8.9803 7.19351 9.05649C7.2697 9.13267 7.3125 9.23601 7.3125 9.34375C7.3125 9.45149 7.2697 9.55483 7.19351 9.63101C7.11733 9.7072 7.01399 9.75 6.90625 9.75H6.09375C5.98601 9.75 5.88267 9.7072 5.80649 9.63101C5.7303 9.55483 5.6875 9.45149 5.6875 9.34375Z" fill="white"/>
</svg>
