<svg width="27" height="27" viewBox="0 0 27 27" fill="none" xmlns="http://www.w3.org/2000/svg">
<path d="M13.5 18.0208C12.301 18.0208 11.1511 17.5445 10.3033 16.6967C9.4555 15.8489 8.9792 14.699 8.9792 13.5C8.9792 12.301 9.4555 11.1511 10.3033 10.3033C11.1511 9.45545 12.301 8.97915 13.5 8.97915C14.699 8.97915 15.8489 9.45545 16.6967 10.3033C17.5446 11.1511 18.0209 12.301 18.0209 13.5C18.0209 14.699 17.5446 15.8489 16.6967 16.6967C15.8489 17.5445 14.699 18.0208 13.5 18.0208ZM23.0971 14.7529C23.1488 14.3396 23.1875 13.9262 23.1875 13.5C23.1875 13.0737 23.1488 12.6475 23.0971 12.2083L25.8225 10.1029C26.068 9.90915 26.1325 9.5604 25.9775 9.27623L23.3942 4.80707C23.2392 4.5229 22.8905 4.40665 22.6063 4.5229L19.39 5.81457C18.7184 5.31082 18.0209 4.87165 17.2071 4.54873L16.7292 1.12582C16.703 0.973679 16.6237 0.835742 16.5055 0.736444C16.3873 0.637147 16.2378 0.5829 16.0834 0.583315H10.9167C10.5938 0.583315 10.3225 0.815815 10.2709 1.12582L9.79295 4.54873C8.9792 4.87165 8.2817 5.31082 7.61004 5.81457L4.39379 4.5229C4.10962 4.40665 3.76087 4.5229 3.60587 4.80707L1.02254 9.27623C0.85462 9.5604 0.93212 9.90915 1.17754 10.1029L3.90295 12.2083C3.85129 12.6475 3.81254 13.0737 3.81254 13.5C3.81254 13.9262 3.85129 14.3396 3.90295 14.7529L1.17754 16.8971C0.93212 17.0908 0.85462 17.4396 1.02254 17.7237L3.60587 22.1929C3.76087 22.4771 4.10962 22.5804 4.39379 22.4771L7.61004 21.1725C8.2817 21.6891 8.9792 22.1283 9.79295 22.4512L10.2709 25.8741C10.3225 26.1842 10.5938 26.4167 10.9167 26.4167H16.0834C16.4063 26.4167 16.6775 26.1842 16.7292 25.8741L17.2071 22.4512C18.0209 22.1154 18.7184 21.6891 19.39 21.1725L22.6063 22.4771C22.8905 22.5804 23.2392 22.4771 23.3942 22.1929L25.9775 17.7237C26.1325 17.4396 26.068 17.0908 25.8225 16.8971L23.0971 14.7529Z" fill="#C8994D"/>
</svg>
