<svg width="25" height="25" viewBox="0 0 25 25" fill="none" xmlns="http://www.w3.org/2000/svg">
<path d="M17.6667 18.9583V17.6667H13.7917V13.7917H17.6667V16.375H20.25V18.9583H18.9583V21.5417H16.375V24.125H13.7917V20.25H16.375V18.9583H17.6667ZM24.125 24.125H18.9583V21.5417H21.5417V18.9583H24.125V24.125ZM0.875 0.875H11.2083V11.2083H0.875V0.875ZM13.7917 0.875H24.125V11.2083H13.7917V0.875ZM0.875 13.7917H11.2083V24.125H0.875V13.7917ZM20.25 13.7917H24.125V16.375H20.25V13.7917ZM4.75 4.75V7.33333H7.33333V4.75H4.75ZM4.75 17.6667V20.25H7.33333V17.6667H4.75ZM17.6667 4.75V7.33333H20.25V4.75H17.6667Z" fill="#C8994D"/>
</svg>
