<svg width="20" height="20" viewBox="0 0 20 20" fill="none" xmlns="http://www.w3.org/2000/svg">
<path d="M12.4 1.60717C12.4 0.559572 11.152 0.0147715 10.384 0.727571L5.73759 5.03917C5.62676 5.14233 5.48101 5.19977 5.32959 5.19997H2.19999C1.7226 5.19997 1.26477 5.38961 0.927202 5.72718C0.589636 6.06474 0.399994 6.52258 0.399994 6.99997V13C0.399994 13.4774 0.589636 13.9352 0.927202 14.2728C1.26477 14.6103 1.7226 14.8 2.19999 14.8H5.32839C5.47965 14.7998 5.62537 14.8568 5.73639 14.9596L10.384 19.2724C11.152 19.984 12.4 19.4404 12.4 18.3928V1.60717ZM16.3048 3.55237C16.3636 3.49989 16.4321 3.45951 16.5065 3.43352C16.5809 3.40753 16.6597 3.39644 16.7383 3.4009C16.817 3.40536 16.894 3.42527 16.965 3.45949C17.036 3.49372 17.0995 3.54159 17.152 3.60037C18.726 5.36039 19.5962 7.63877 19.5962 9.99997C19.5962 12.3612 18.726 14.6395 17.152 16.3996C17.0997 16.4591 17.0361 16.5077 16.9649 16.5425C16.8937 16.5773 16.8163 16.5977 16.7372 16.6024C16.658 16.6072 16.5788 16.5962 16.5039 16.5701C16.4291 16.544 16.3601 16.5034 16.3011 16.4505C16.242 16.3977 16.194 16.3336 16.1599 16.2621C16.1257 16.1906 16.1061 16.113 16.102 16.0338C16.098 15.9547 16.1098 15.8755 16.1365 15.8009C16.1633 15.7263 16.2046 15.6577 16.258 15.5992C17.6354 14.0591 18.3968 12.0655 18.3968 9.99937C18.3968 7.93325 17.6354 5.93961 16.258 4.39957C16.1519 4.28102 16.0972 4.12516 16.1059 3.96628C16.1147 3.8074 16.1862 3.65851 16.3048 3.55237V3.55237ZM14.8948 13.5196C14.8265 13.4803 14.7665 13.4279 14.7185 13.3654C14.6704 13.303 14.6351 13.2316 14.6146 13.1555C14.5941 13.0794 14.5888 13 14.599 12.9218C14.6091 12.8437 14.6346 12.7683 14.674 12.7C15.1482 11.8791 15.3978 10.9479 15.3978 9.99997C15.3978 9.05202 15.1482 8.1208 14.674 7.29997C14.6306 7.23168 14.6014 7.15531 14.5883 7.07547C14.5752 6.99562 14.5783 6.91394 14.5976 6.83534C14.6168 6.75674 14.6518 6.68285 14.7003 6.61811C14.7489 6.55337 14.81 6.49912 14.8801 6.45862C14.9501 6.41813 15.0277 6.39222 15.108 6.38246C15.1883 6.37271 15.2698 6.3793 15.3475 6.40185C15.4252 6.42439 15.4976 6.46243 15.5602 6.51366C15.6229 6.56489 15.6745 6.62827 15.712 6.69997C16.2917 7.70311 16.597 8.84122 16.5972 9.99981C16.5974 11.1584 16.2925 12.2966 15.7132 13.3C15.6336 13.4374 15.5028 13.5378 15.3494 13.5789C15.196 13.6201 15.0325 13.5988 14.8948 13.5196V13.5196Z" fill="#C8994D"/>
</svg>
