<svg width="23" height="23" viewBox="0 0 23 23" fill="none" xmlns="http://www.w3.org/2000/svg">
<path d="M21.2031 0.953125H1.79688C1.33018 0.953125 0.953125 1.33018 0.953125 1.79688V21.2031C0.953125 21.6698 1.33018 22.0469 1.79688 22.0469H21.2031C21.6698 22.0469 22.0469 21.6698 22.0469 21.2031V1.79688C22.0469 1.33018 21.6698 0.953125 21.2031 0.953125ZM20.3594 13.1875H11.9219V9.8125H20.3594V13.1875ZM13.293 11.5C13.293 11.7797 13.4041 12.048 13.6019 12.2458C13.7997 12.4436 14.0679 12.5547 14.3477 12.5547C14.6274 12.5547 14.8956 12.4436 15.0934 12.2458C15.2912 12.048 15.4023 11.7797 15.4023 11.5C15.4023 11.2203 15.2912 10.952 15.0934 10.7542C14.8956 10.5564 14.6274 10.4453 14.3477 10.4453C14.0679 10.4453 13.7997 10.5564 13.6019 10.7542C13.4041 10.952 13.293 11.2203 13.293 11.5Z" fill="#AAAAAA"/>
</svg>
