<svg width="20" height="28" viewBox="0 0 20 28" fill="none" xmlns="http://www.w3.org/2000/svg">
<path d="M1.845 7.98302L3.88 25.336C3.88 26.313 6.62 27.106 10 27.106C13.38 27.106 16.12 26.313 16.12 25.336L18.5 7.85002C16.045 8.87402 11.688 8.98402 10.002 8.98402C8.392 8.98402 4.347 8.88402 1.847 7.98402L1.845 7.98302ZM18.13 3.75302L17.754 2.07302C17.754 1.42302 14.282 0.89502 10 0.89502C5.718 0.89502 2.246 1.42502 2.246 2.07502L1.87 3.75202C1.156 4.03602 0.75 4.36002 0.75 4.70502V5.99002C0.75 7.09002 4.892 7.98402 10 7.98402C15.108 7.98402 19.25 7.09002 19.25 5.98902V4.70402C19.25 4.35902 18.844 4.03402 18.13 3.75102V3.75302Z" fill="#C8994D"/>
</svg>
