<?xml version="1.0" encoding="utf-8"?>
<!-- Generator: Adobe Illustrator 24.0.1, SVG Export Plug-In . SVG Version: 6.00 Build 0)  -->
<svg version="1.1"
	 id="svg8" xmlns:cc="http://creativecommons.org/ns#" xmlns:dc="http://purl.org/dc/elements/1.1/" xmlns:inkscape="http://www.inkscape.org/namespaces/inkscape" xmlns:rdf="http://www.w3.org/1999/02/22-rdf-syntax-ns#" xmlns:sodipodi="http://sodipodi.sourceforge.net/DTD/sodipodi-0.dtd" xmlns:svg="http://www.w3.org/2000/svg"
	 xmlns="http://www.w3.org/2000/svg" xmlns:xlink="http://www.w3.org/1999/xlink" x="0px" y="0px" viewBox="0 0 300 300"
	 style="enable-background:new 0 0 300 300;" xml:space="preserve">
<style type="text/css">
	.st0{fill:#34B297;}
	.st1{fill:#FFFFFF;}
</style>
<circle class="st0" cx="150" cy="150" r="150"/>
<g id="layer1">
	<path id="path1332" class="st1" d="M149.9,147.3c-33.3,0.1-60.9,26.5-62.6,59.8c-0.2,3.9,2.8,7.1,6.7,7.3c0.1,0,0.2,0,0.4,0h111.4
		c3.9,0,7-3.1,7-7c0-0.1,0-0.2,0-0.3c-1.7-33.4-29.3-59.8-62.7-59.8H149.9z"/>
	<path id="path1292" class="st1" d="M150,85.5c-17.7,0-32.1,14.5-32.1,32.2c0,17.7,14.4,32.2,32.1,32.2s32.1-14.5,32.1-32.2
		C182.1,100,167.6,85.5,150,85.5z"/>
</g>
</svg>
