<svg width="20" height="20" viewBox="0 0 20 20" fill="none" xmlns="http://www.w3.org/2000/svg">
<path fill-rule="evenodd" clip-rule="evenodd" d="M2.35623 0.63875C2.57495 0.420361 2.83758 0.250948 3.12672 0.141738C3.41587 0.0325276 3.72492 -0.0139861 4.0334 0.00527911C4.34188 0.0245444 4.64275 0.109149 4.91606 0.253486C5.18937 0.397822 5.42888 0.598596 5.61873 0.8425L7.86248 3.725C8.27373 4.25375 8.41873 4.9425 8.25623 5.5925L7.57248 8.33C7.53713 8.47179 7.53904 8.62031 7.57802 8.76114C7.61701 8.90197 7.69175 9.03033 7.79498 9.13375L10.8662 12.205C10.9698 12.3084 11.0983 12.3833 11.2394 12.4223C11.3805 12.4613 11.5293 12.4631 11.6712 12.4275L14.4075 11.7437C14.7282 11.6635 15.063 11.6573 15.3866 11.7255C15.7101 11.7937 16.0139 11.9346 16.275 12.1375L19.1575 14.38C20.1937 15.1862 20.2887 16.7175 19.3612 17.6437L18.0687 18.9362C17.1437 19.8612 15.7612 20.2675 14.4725 19.8137C11.174 18.6532 8.17907 16.7648 5.70998 14.2887C3.23409 11.82 1.34574 8.82557 0.184978 5.5275C-0.267522 4.24 0.138728 2.85625 1.06373 1.93125L2.35623 0.63875Z" fill="#C8994D"/>
</svg>
