<svg xmlns="http://www.w3.org/2000/svg" xmlns:xlink="http://www.w3.org/1999/xlink" viewBox="0 0 298.32 298.32"><defs><style>.cls-1{isolation:isolate;}.cls-2{fill:url(#무제_그라디언트_23);}.cls-3{opacity:0.15;mix-blend-mode:multiply;}.cls-4{fill:#040000;}.cls-5{fill:#fff;}</style><linearGradient id="무제_그라디언트_23" x1="149.16" x2="149.16" y2="298.32" gradientUnits="userSpaceOnUse"><stop offset="0" stop-color="#2ca6e0"/><stop offset="0.99" stop-color="#182987"/></linearGradient></defs><title>Asset 6</title><g class="cls-1"><g id="Layer_2" data-name="Layer 2"><g id="레이어_6" data-name="레이어 6"><rect class="cls-2" width="298.32" height="298.32" rx="70"/><g class="cls-3"><path class="cls-4" d="M146.48,93.79l3.36-1.94a.11.11,0,0,1,.11,0l3.2,1.86,0,0a3.58,3.58,0,0,0,.75.58l24,13.87a3.79,3.79,0,0,0,5.69-3.28V74.46a3.77,3.77,0,0,0-1.89-3.28L151.63,53.71a3.36,3.36,0,0,0-3.45,0L80.26,93a3.36,3.36,0,0,0-1.72,3v161.6a4.1,4.1,0,0,0,1.95,3.36,3.31,3.31,0,0,0,3.2-.12l26.94-15.55a3.54,3.54,0,0,0,1.77-3.07V113.61a.13.13,0,0,1,.06-.1l33.61-19.4A3.22,3.22,0,0,0,146.48,93.79Z"/><path class="cls-4" d="M223,53.72a4.08,4.08,0,0,0-3.88,0L192.39,69.14a3.55,3.55,0,0,0-1.77,3.07v79.11a.11.11,0,0,1-.05.09L158.31,170a.13.13,0,0,1-.12,0L124.55,150.5a3.35,3.35,0,0,0-3.22-.12,4.09,4.09,0,0,0-1.94,3.37l.08,30.76a3.35,3.35,0,0,0,1.7,3l35.34,20.71a3.39,3.39,0,0,0,2,.45,3.43,3.43,0,0,0,1.93-.44l62.38-36a3.35,3.35,0,0,0,1.72-3V56.56A3.38,3.38,0,0,0,223,53.72Z"/></g><path class="cls-5" d="M141.77,90,145.13,88a.11.11,0,0,1,.11,0l3.2,1.86,0,0a3.94,3.94,0,0,0,.75.58l24,13.87a3.8,3.8,0,0,0,5.69-3.29V70.63A3.8,3.8,0,0,0,177,67.35L146.93,49.89a3.36,3.36,0,0,0-3.46,0L75.55,89.18a3.35,3.35,0,0,0-1.72,3V253.76a4.1,4.1,0,0,0,2,3.36A3.33,3.33,0,0,0,79,257l26.93-15.55a3.57,3.57,0,0,0,1.78-3.08V109.78a.11.11,0,0,1,0-.09l33.61-19.41A2.59,2.59,0,0,0,141.77,90Z"/><path class="cls-5" d="M218.28,49.9a4.1,4.1,0,0,0-3.88,0L187.69,65.32a3.54,3.54,0,0,0-1.78,3.07v79.1a.12.12,0,0,1,0,.1L153.6,166.21a.11.11,0,0,1-.11,0l-33.65-19.53a3.35,3.35,0,0,0-3.22-.12,4.09,4.09,0,0,0-1.94,3.36l.08,30.77a3.34,3.34,0,0,0,1.7,2.95l35.34,20.71a3.41,3.41,0,0,0,1.95.46,3.34,3.34,0,0,0,1.93-.45l62.38-36a3.37,3.37,0,0,0,1.72-3V52.74A3.33,3.33,0,0,0,218.28,49.9Z"/></g></g></g></svg>