<svg width="26" height="26" viewBox="0 0 26 26" fill="none" xmlns="http://www.w3.org/2000/svg">
<path d="M25.9748 11.5952C25.831 7.44818 24.7431 4.10881 22.2845 2.28556C19.8258 0.462306 16.1314 -0.169007 11.4896 0.0511805C9.3779 0.152743 7.47746 0.42818 5.9329 1.04568C4.34203 1.68431 3.11028 2.58618 2.20921 3.83906C0.398151 6.35699 -0.160849 10.1611 0.0382135 14.5413C0.228339 18.7013 1.30328 21.9936 3.79196 23.7876C6.26765 25.5734 10.2879 26.1406 14.5283 25.9586C18.642 25.7847 21.9847 24.6976 23.7746 22.2048C25.5605 19.7161 26.1276 16.0477 25.9748 11.596V11.5952ZM7.15165 16.0006H6.61459V14.8492H7.15165C8.1754 14.8492 8.92453 14.0579 8.92453 13.0764C8.92463 12.8435 8.87885 12.6129 8.78979 12.3978C8.70073 12.1826 8.57015 11.9872 8.4055 11.8225C8.24085 11.6579 8.04537 11.5273 7.83023 11.4382C7.61508 11.3492 7.3845 11.3034 7.15165 11.3035H5.42103C5.39047 11.3035 5.36074 11.3134 5.33628 11.3317C5.31181 11.35 5.29394 11.3757 5.28534 11.4051V17.6889H4.16815V11.4051C4.16815 10.7152 4.73121 10.1522 5.42103 10.1522H7.15165C8.76853 10.1522 10.1051 11.4644 10.1051 13.0764C10.1051 14.6932 8.85709 16.0006 7.15165 16.0006ZM16.5799 16.0006H15.4497V12.9919C15.4245 12.1412 14.5227 11.2946 13.5623 11.2946C12.4833 11.2946 11.6919 12.2167 11.6919 13.0764C11.6919 14.2992 12.5507 14.8582 13.5623 14.8582H13.9645V16.0006H13.5623C11.8991 16.0006 10.5447 14.9337 10.5447 13.0764C10.5447 11.5659 11.8991 10.1522 13.5623 10.1522C15.0687 10.1522 16.5328 11.4172 16.5799 12.9919V16.0006ZM18.0148 10.3464L19.4878 13.3681L18.8492 14.6672L16.7375 10.3464H18.0148ZM19.3814 17.8961H18.0993L21.8108 10.3464H23.0929L19.3814 17.8961Z" fill="#C8994D"/>
</svg>
