<svg width="24" height="22" viewBox="0 0 24 22" fill="none" xmlns="http://www.w3.org/2000/svg">
<path d="M14.3333 0.5V21.5H1.49998C1.19056 21.5 0.893814 21.3771 0.675022 21.1583C0.456229 20.9395 0.333313 20.6428 0.333313 20.3333V13.9167C1.10686 13.9167 1.84873 13.6094 2.39571 13.0624C2.94269 12.5154 3.24998 11.7735 3.24998 11C3.24998 10.2265 2.94269 9.48459 2.39571 8.9376C1.84873 8.39062 1.10686 8.08333 0.333313 8.08333V1.66667C0.333313 1.35725 0.456229 1.0605 0.675022 0.841709C0.893814 0.622916 1.19056 0.5 1.49998 0.5H14.3333ZM16.6666 0.5H22.5C22.8094 0.5 23.1061 0.622916 23.3249 0.841709C23.5437 1.0605 23.6666 1.35725 23.6666 1.66667V8.08333C22.8931 8.08333 22.1512 8.39062 21.6043 8.9376C21.0573 9.48459 20.75 10.2265 20.75 11C20.75 11.7735 21.0573 12.5154 21.6043 13.0624C22.1512 13.6094 22.8931 13.9167 23.6666 13.9167V20.3333C23.6666 20.6428 23.5437 20.9395 23.3249 21.1583C23.1061 21.3771 22.8094 21.5 22.5 21.5H16.6666V0.5Z" fill="#C8994D"/>
</svg>
