<svg width="13" height="13" viewBox="0 0 13 13" fill="none" xmlns="http://www.w3.org/2000/svg">
<path d="M0.25 6.5C0.25 9.95187 3.04812 12.75 6.5 12.75C9.95187 12.75 12.75 9.95187 12.75 6.5C12.75 3.04812 9.95187 0.249999 6.5 0.249999C3.04813 0.249999 0.25 3.04812 0.25 6.5ZM9.33125 6.325C9.41064 6.40437 9.4589 6.50959 9.46728 6.62153C9.47565 6.73347 9.44357 6.84471 9.37687 6.935L9.33187 6.98812L6.83125 9.48812C6.75185 9.56767 6.6465 9.61604 6.53442 9.62442C6.42233 9.63279 6.31097 9.60062 6.22062 9.53375L6.16812 9.48812L3.66812 6.9875C3.58425 6.90386 3.53516 6.79157 3.53071 6.6732C3.52626 6.55484 3.56678 6.43918 3.64413 6.34947C3.72148 6.25977 3.82993 6.20268 3.94766 6.18967C4.06539 6.17667 4.18368 6.20872 4.27875 6.27937L4.33125 6.32437L6.03125 8.02562L6.03125 3.84375C6.03112 3.73027 6.07217 3.62061 6.14676 3.53509C6.22135 3.44958 6.32443 3.39403 6.43687 3.37875L6.5 3.375C6.61327 3.375 6.72271 3.41603 6.80808 3.49048C6.89345 3.56493 6.94897 3.66778 6.96437 3.78L6.96875 3.84375L6.96875 8.025L8.66875 6.325C8.74815 6.24545 8.8535 6.19708 8.96558 6.1887C9.07767 6.18033 9.18903 6.21251 9.27937 6.27937L9.33187 6.325L9.33125 6.325Z" fill="white"/>
</svg>
