<?xml version="1.0" encoding="utf-8"?>
<!-- Generator: Adobe Illustrator 24.0.1, SVG Export Plug-In . SVG Version: 6.00 Build 0)  -->
<svg version="1.1" id="Layer_1" xmlns="http://www.w3.org/2000/svg" xmlns:xlink="http://www.w3.org/1999/xlink" x="0px" y="0px"
	 viewBox="0 0 15.1 19.3" style="enable-background:new 0 0 15.1 19.3;" xml:space="preserve">
<style type="text/css">
	.st0{fill:#FFFFFF;}
</style>
<path class="st0" d="M6.9,7.9V0H0.5C0.4,0,0.2,0.1,0.2,0.2C0.1,0.2,0,0.4,0,0.5v18.2c0,0.1,0.1,0.3,0.2,0.4c0.1,0.1,0.2,0.2,0.4,0.2
	h14.1c0.1,0,0.3-0.1,0.4-0.2c0.1-0.1,0.2-0.2,0.2-0.4V8.3H7.2C7.1,8.3,7,8.2,7,8.1C6.9,8.1,6.9,8,6.9,7.9z"/>
<path class="st0" d="M8.3,0.4v6.3c0,0,0,0.1,0.1,0.1c0,0,0.1,0.1,0.1,0.1h6.3c0,0,0,0,0,0c0,0,0,0,0,0c0,0,0,0,0,0c0,0,0,0,0,0
	L8.4,0.4c0,0,0,0,0,0C8.3,0.3,8.3,0.3,8.3,0.4C8.3,0.3,8.3,0.4,8.3,0.4C8.3,0.4,8.3,0.4,8.3,0.4L8.3,0.4z"/>
</svg>
