<?xml version="1.0" encoding="utf-8"?>
<!-- Generator: Adobe Illustrator 24.0.1, SVG Export Plug-In . SVG Version: 6.00 Build 0)  -->
<svg version="1.1" id="Layer_1" xmlns="http://www.w3.org/2000/svg" xmlns:xlink="http://www.w3.org/1999/xlink" x="0px" y="0px"
	 viewBox="0 0 17.9 22.8" style="enable-background:new 0 0 17.9 22.8;" xml:space="preserve">
<style type="text/css">
	.st0{fill:#C8994D;}
</style>
<path class="st0" d="M9.8,0.5v7.4c0,0.1,0,0.1,0.1,0.1c0,0,0.1,0.1,0.1,0.1h7.4c0,0,0,0,0.1,0c0,0,0,0,0,0c0,0,0,0,0-0.1
	c0,0,0,0,0-0.1L9.9,0.4c0,0,0,0-0.1,0C9.9,0.4,9.8,0.4,9.8,0.5C9.8,0.4,9.8,0.4,9.8,0.5C9.8,0.5,9.8,0.5,9.8,0.5L9.8,0.5z"/>
<path class="st0" d="M8.5,9.8c-0.1,0-0.2,0-0.3-0.1C8.2,9.6,8.1,9.5,8.1,9.3V0H0.6C0.4,0,0.3,0.1,0.2,0.2C0.1,0.3,0,0.4,0,0.6v21.5
	c0,0.2,0.1,0.3,0.2,0.4c0.1,0.1,0.3,0.2,0.4,0.2h16.7c0.2,0,0.3-0.1,0.4-0.2c0.1-0.1,0.2-0.3,0.2-0.4V9.8H8.5z M13.8,17.9H4.1v-1.6
	h9.8V17.9z M13.8,13.8H4.1v-1.6h9.8V13.8z"/>
</svg>
