<?xml version="1.0" encoding="utf-8"?>
<!-- Generator: Adobe Illustrator 24.0.1, SVG Export Plug-In . SVG Version: 6.00 Build 0)  -->
<svg version="1.1" id="Layer_1" xmlns="http://www.w3.org/2000/svg" xmlns:xlink="http://www.w3.org/1999/xlink" x="0px" y="0px"
	 viewBox="0 0 60 57.1" style="enable-background:new 0 0 60 57.1;" xml:space="preserve">
<style type="text/css">
	.st0{fill-rule:evenodd;clip-rule:evenodd;fill:#C8994D;}
</style>
<title>grade</title>
<desc>Created with Sketch.</desc>
<g id="Action" transform="translate(100.000000, 100.000000)">
	<g id="_x2D_Round-_x2F_-Action-_x2F_-grade" transform="translate(680.000000, 186.000000)">
		<g transform="translate(0.000000, 0.000000)">
			<path id="_xD83D__xDD39_Icon-Color" class="st0" d="M-750-239.4l16.5,10c1.2,0.7,2.7-0.4,2.4-1.7l-4.4-18.8l14.6-12.6
				c1.1-0.9,0.5-2.7-0.9-2.8L-741-267l-7.5-17.7c-0.5-1.3-2.4-1.3-2.9,0L-759-267l-19.2,1.6c-1.4,0.1-2,1.9-0.9,2.8l14.6,12.6
				l-4.4,18.8c-0.3,1.4,1.2,2.5,2.4,1.7L-750-239.4z"/>
		</g>
	</g>
</g>
</svg>
