<svg width="26" height="28" viewBox="0 0 26 28" fill="none" xmlns="http://www.w3.org/2000/svg">
<path d="M2.87498 10.625C2.87498 7.93968 3.94172 5.36435 5.84053 3.46554C7.73933 1.56674 10.3147 0.5 13 0.5C15.6853 0.5 18.2606 1.56674 20.1594 3.46554C22.0582 5.36435 23.125 7.93968 23.125 10.625V14.909L25.294 20.3315C25.3624 20.5022 25.3879 20.687 25.3683 20.8699C25.3487 21.0527 25.2846 21.228 25.1816 21.3803C25.0786 21.5326 24.9398 21.6574 24.7774 21.7436C24.6149 21.8298 24.4339 21.875 24.25 21.875H1.74998C1.5661 21.875 1.38502 21.8298 1.22261 21.7436C1.0602 21.6574 0.921413 21.5326 0.818389 21.3803C0.715364 21.228 0.651247 21.0527 0.631651 20.8699C0.612054 20.687 0.637577 20.5022 0.705983 20.3315L2.87498 14.909V10.625ZM8.63948 24.125C9.13673 26.0713 10.894 27.5 13 27.5C15.106 27.5 16.8632 26.0713 17.3605 24.125H8.63948Z" fill="#C8994D"/>
</svg>
