<?xml version="1.0" encoding="utf-8"?>
<!-- Generator: Adobe Illustrator 24.0.1, SVG Export Plug-In . SVG Version: 6.00 Build 0)  -->
<svg version="1.1" id="Layer_1" xmlns="http://www.w3.org/2000/svg" xmlns:xlink="http://www.w3.org/1999/xlink" x="0px" y="0px"
	 viewBox="0 0 20.2 20.2" style="enable-background:new 0 0 20.2 20.2;" xml:space="preserve">
<style type="text/css">
	.st0{fill:#FFFFFF;}
	.st1{fill-rule:evenodd;clip-rule:evenodd;fill:#FFFFFF;}
</style>
<path class="st0" d="M0,0h9.2v9.2H0V0z M1.8,1.8v5.5h5.5V1.8H1.8z"/>
<path class="st1" d="M3.7,3.7h1.8v1.8H3.7V3.7z"/>
<path class="st0" d="M11,0h9.2v9.2H11V0z M12.8,1.8v5.5h5.5V1.8H12.8z"/>
<path class="st1" d="M14.7,3.7h1.8v1.8h-1.8V3.7z"/>
<path class="st0" d="M0,11h9.2v9.2H0V11z M1.8,12.8v5.5h5.5v-5.5H1.8z"/>
<path class="st1" d="M3.7,14.7h1.8v1.8H3.7V14.7z"/>
<path class="st0" d="M20.2,16.5h-3.7v3.7H11V11h0.9H11v5.5h1.8v1.8h1.8v-5.5h-1.8V11h-0.9h2.8v1.8h1.8v1.8h1.8V11h1.8V16.5z
	 M20.2,18.3v1.8h-1.8v-1.8H20.2z"/>
</svg>
