<?xml version="1.0" encoding="utf-8"?>
<!-- Generator: Adobe Illustrator 24.0.1, SVG Export Plug-In . SVG Version: 6.00 Build 0)  -->
<svg version="1.1" id="Layer_1" xmlns="http://www.w3.org/2000/svg" xmlns:xlink="http://www.w3.org/1999/xlink" x="0px" y="0px"
	 viewBox="0 0 150.2 150.2" style="enable-background:new 0 0 150.2 150.2;" xml:space="preserve">
<style type="text/css">
	.st0{fill:#FFD700;}
	.st1{fill:#FFFFFF;}
</style>
<title></title>
<circle class="st0" cx="75.1" cy="75.1" r="75.1"/>
<g id="Camada_2">
	<g id="Camada_1-2">
		<path class="st1" d="M106.7,87.2c-1.5-0.7-3.1-1.2-4.8-1.5c-1.1-0.3-2.2-0.6-3.3-1c-0.6-0.2-1.2-0.6-1.7-1.1
			c-0.4-0.4-0.5-1-0.5-1.5c0-0.8,0.4-1.6,1-2c0.9-0.5,1.9-0.8,2.9-0.7c1,0,2,0.2,2.8,0.7c0.7,0.4,1.2,1,1.3,1.8
			c0.2,0.4,0.5,0.6,1,0.6h3.2c0.4,0,0.7-0.3,0.7-0.6c0,0,0-0.1,0-0.1c-0.1-0.9-0.4-1.8-0.9-2.5c-0.6-0.9-1.4-1.7-2.4-2.3
			c-1.1-0.7-2.4-1.1-3.7-1.3v-2.4c0-0.4-0.3-0.8-0.7-0.8c0,0-0.1,0-0.1,0h-2.1c-0.2,0-0.4,0.1-0.6,0.2c-0.2,0.2-0.3,0.4-0.2,0.6v2.3
			c-1.9,0.1-3.7,0.9-5.2,2.2c-1.2,1.1-1.9,2.7-1.9,4.4c-0.1,1.7,0.6,3.3,1.8,4.4c1.7,1.2,3.7,2.1,5.8,2.5c1.6,0.4,2.8,0.8,3.6,1.1
			c0.7,0.2,1.3,0.6,1.8,1c0.4,0.4,0.6,1,0.6,1.5c0,0.9-0.4,1.7-1.2,2.2c-1.1,0.6-2.3,0.9-3.5,0.8c-1.1,0.1-2.3-0.2-3.2-0.8
			c-0.7-0.4-1.3-1.1-1.6-1.9c-0.1-0.2-0.2-0.3-0.4-0.5c-0.2-0.1-0.4-0.1-0.6,0h-3c-0.2,0-0.4,0.1-0.5,0.2c-0.1,0.1-0.2,0.3-0.2,0.5
			c0.1,1,0.4,2,1,2.9c0.7,1,1.6,1.7,2.6,2.3c1.2,0.6,2.6,1,4,1.2v2.3c0,0.2,0.1,0.4,0.2,0.6c0.2,0.1,0.4,0.2,0.6,0.2h2.1
			c0.4,0,0.8-0.3,0.8-0.7c0,0,0-0.1,0-0.1v-2.3c2.1-0.1,4-0.9,5.6-2.2c1.4-1.2,2.1-2.9,2.1-4.7c0-1.1-0.2-2.3-0.8-3.2
			C108.5,88.5,107.7,87.7,106.7,87.2z"/>
		<path class="st1" d="M100.5,61H90.4V50.7c0-1.1-0.9-2-2-2h-2.5V38c0-1.1-0.9-2-2-2H35.9c-1.1,0-2,0.9-2,2v12.3c0,1.1,0.9,2,2,2
			h2.6V63c0,1.1,0.9,2,2,2h2v8.3h-6c-1.1,0-2,0.9-2,2v36.7c0,1.1,0.9,2,2,2h47.9c1.1,0,2-0.9,2-2v-2c12.3,8,28.8,4.5,36.8-7.9
			s4.5-28.8-7.9-36.8C111,62.4,105.8,60.9,100.5,61z M37.9,40h43.9v8.3H37.9V40z M42.6,52.7h43.9V61H42.6V52.7z M46.6,65h40
			c-3.4,2.1-6.2,4.9-8.4,8.3H46.6V65z M74.5,97.8h-36v-8.3h35.3c0.2,2.8,0.9,5.6,2,8.3H74.5z M38.6,77.2H76c-1.1,2.6-1.8,5.4-2,8.3
			H38.6L38.6,77.2z M82.5,110.1H38.6v-8.3h39.5c1.2,1.9,2.6,3.6,4.3,5.2L82.5,110.1z M100.7,110.1c-12.4,0-22.5-10.1-22.6-22.5
			c0-4,1-7.9,3-11.3c0.1-0.1,0.1-0.2,0.2-0.4c6.4-10.7,20.3-14.1,30.9-7.7c10.7,6.4,14.1,20.3,7.7,30.9
			C115.9,105.9,108.6,110.1,100.7,110.1z"/>
	</g>
</g>
</svg>
