<?xml version="1.0" encoding="utf-8"?>
<!-- Generator: Adobe Illustrator 24.0.1, SVG Export Plug-In . SVG Version: 6.00 Build 0)  -->
<svg version="1.1" id="Layer_1" focusable="false" xmlns="http://www.w3.org/2000/svg" xmlns:xlink="http://www.w3.org/1999/xlink"
	 x="0px" y="0px" viewBox="0 0 100 100" style="enable-background:new 0 0 100 100;" xml:space="preserve">
<style type="text/css">
	.st0{fill:#FFC544;}
	.st1{fill:#FFFFFF;}
</style>
<circle class="st0" cx="50" cy="50" r="49.3"/>
<path class="st1" d="M48.6,78.3c-5-0.5-10.2-2.5-14.4-5.6l-2-1.5l1.8-2.1C35,68,35.9,67,36,67c0.1,0,1.1,0.7,2.3,1.5
	c4.3,3,7.9,4.1,13.1,4.1c4.2,0,6.5-0.5,10.4-2.4c2.2-1.1,3.3-1.9,5.6-4.3c2.4-2.4,3.2-3.4,4.2-5.7c1.8-3.8,2.4-6.2,2.4-10.3
	c0-4-0.6-6.5-2.4-10.3c-1.1-2.3-1.8-3.2-4.2-5.6c-3.2-3.2-5.7-4.7-9.6-5.9c-12-3.7-25.1,3.7-28.5,16c-1,3.6-1,3.5,1.6,3.5
	c1.2,0,2.2,0.1,2.2,0.2c0,0.2-7.5,13.3-7.6,13.2c-0.3-0.5-7.5-13.1-7.5-13.2c0-0.1,1.1-0.2,2.4-0.2h2.4l0.4-2.2
	c1.9-11.5,10.2-20.5,21.5-23.3c3.6-0.9,9.7-1,13.1-0.1c16.5,4,26,20.8,20.7,36.8c-2.2,6.7-7,12.4-13.5,16.1
	c-2.4,1.4-7.1,2.9-9.6,3.1c-1.1,0.1-2.6,0.2-3.2,0.3C51.5,78.5,49.9,78.4,48.6,78.3L48.6,78.3z M48.6,65c0-1.7,0-1.7-1.2-2.1
	c-1.9-0.6-4.4-3.4-5-5.5c-0.9-3-1-2.9,2.8-2.9c3.3,0,3.4,0,3.8,0.9c0.6,1.3,2.5,1.7,3.7,0.8c0.6-0.4,0.9-1,1-1.6
	c0.1-1.2-0.3-1.5-4-2.6c-1.2-0.4-2.8-1-3.4-1.3c-1.5-0.8-3.4-2.8-4-4.2c-0.6-1.5-0.6-4.1,0-5.5c0.7-1.6,2.8-3.5,4.5-4.2l1.5-0.6
	l0.1-1.8l0.1-1.8l2.8-0.1l2.8-0.1v1.9v1.9l1.4,0.6c0.8,0.3,1.8,1,2.4,1.5c1.4,1.2,2.8,3.6,2.4,4.1c-0.2,0.2-1.6,0.7-3.3,1.2
	c-2.8,0.9-3,0.9-3.2,0.3c-0.7-1.3-3.9-1.6-4.8-0.5c-0.6,0.7,0.5,1.4,3.8,2.5c4.6,1.5,6.9,3.3,7.7,6.1c1.2,4.1-0.5,8.2-4.3,10.4
	l-1.7,1V65v1.7h-2.9h-2.9L48.6,65L48.6,65z"/>
</svg>
