<?xml version="1.0" encoding="utf-8"?>
<!-- Generator: Adobe Illustrator 24.0.1, SVG Export Plug-In . SVG Version: 6.00 Build 0)  -->
<svg version="1.1" id="Capa_1" xmlns="http://www.w3.org/2000/svg" xmlns:xlink="http://www.w3.org/1999/xlink" x="0px" y="0px"
	 viewBox="0 0 393.3 393.3" style="enable-background:new 0 0 393.3 393.3;" xml:space="preserve">
<style type="text/css">
	.st0{fill:#34B297;}
	.st1{fill:#FFFFFF;}
</style>
<circle class="st0" cx="196.6" cy="196.6" r="196.6"/>
<g>
	<path class="st1" d="M243.6,184.9v-35.2c0-25.9-21.1-47-47-47c-25.9,0-47,21.1-47,47v35.2c-13,0-23.5,10.5-23.5,23.5v58.7
		c0,13,10.5,23.5,23.5,23.5h93.9c13,0,23.5-10.5,23.5-23.5v-58.7C267.1,195.4,256.6,184.9,243.6,184.9z M202.5,241.8v19.4
		c0,3.2-2.6,5.9-5.9,5.9s-5.9-2.6-5.9-5.9v-19.4c-3.4-2-5.9-5.6-5.9-9.9c0-6.5,5.3-11.7,11.7-11.7s11.7,5.3,11.7,11.7
		C208.4,236.2,206,239.8,202.5,241.8z M220.1,184.9h-47v-35.2c0-13,10.5-23.5,23.5-23.5c12.9,0,23.5,10.5,23.5,23.5L220.1,184.9
		L220.1,184.9z"/>
</g>
</svg>
