<?xml version="1.0" encoding="utf-8"?>
<!-- Generator: Adobe Illustrator 24.0.1, SVG Export Plug-In . SVG Version: 6.00 Build 0)  -->
<svg version="1.1" id="Layer_1" xmlns="http://www.w3.org/2000/svg" xmlns:xlink="http://www.w3.org/1999/xlink" x="0px" y="0px"
	 viewBox="0 0 16.1 16.9" style="enable-background:new 0 0 16.1 16.9;" xml:space="preserve">
<style type="text/css">
	.st0{fill:#2C6CDD;}
</style>
<path class="st0" d="M7.3,0h1.6C9,0,9.1,0.1,9.1,0.2v16.5c0,0.1-0.1,0.2-0.2,0.2H7.3c-0.1,0-0.2-0.1-0.2-0.2V0.2
	C7.1,0.1,7.1,0,7.3,0z"/>
<path class="st0" d="M0.2,7.4h15.8c0.1,0,0.2,0.1,0.2,0.2v1.6c0,0.1-0.1,0.2-0.2,0.2H0.2C0.1,9.4,0,9.4,0,9.2V7.6
	C0,7.5,0.1,7.4,0.2,7.4z"/>
</svg>
