<?xml version="1.0" encoding="utf-8"?>
<!-- Generator: Adobe Illustrator 24.0.1, SVG Export Plug-In . SVG Version: 6.00 Build 0)  -->
<svg version="1.1" id="Layer_1" xmlns="http://www.w3.org/2000/svg" xmlns:xlink="http://www.w3.org/1999/xlink" x="0px" y="0px"
	 viewBox="0 0 32 32" style="enable-background:new 0 0 32 32;" xml:space="preserve">
<style type="text/css">
	.st0{fill:#FFC600;}
	.st1{fill:#FFFFFF;}
</style>
<circle class="st0" cx="16" cy="16.1" r="15.9"/>
<g id="_2._Coin">
	<path class="st1" d="M21.3,11.2h-0.1c0.1-0.2,0.1-0.5,0.1-0.7V9.1c0-1.2-1-2.2-2.2-2.2H7.6c-1.2,0-2.2,1-2.2,2.2v1.4
		c0,1,0.7,1.8,1.6,2.1c-0.1,0.3-0.2,0.5-0.2,0.8v1.4c0,0.3,0.1,0.6,0.2,0.8c-0.9,0.3-1.6,1.1-1.6,2.1v1.4c0,1,0.7,1.8,1.6,2.1
		c-0.1,0.3-0.2,0.5-0.2,0.8v1.4c0,1.2,1,2.2,2.2,2.2h12.3c4,0,7.2-3.2,7.2-7.2S25.3,11.2,21.3,11.2z M14.7,15.5H9
		c-0.4,0-0.7-0.3-0.7-0.7v-1.4c0-0.4,0.3-0.7,0.7-0.7H17C16,13.4,15.2,14.4,14.7,15.5z M6.9,9.1c0-0.4,0.3-0.7,0.7-0.7h11.5
		c0.4,0,0.7,0.3,0.7,0.7v1.4c0,0.4-0.3,0.7-0.7,0.7H7.6c-0.4,0-0.7-0.3-0.7-0.7V9.1z M6.9,17.7c0-0.4,0.3-0.7,0.7-0.7h6.6
		c-0.2,1-0.2,1.9,0,2.9H7.6c-0.4,0-0.7-0.3-0.7-0.7V17.7z M9,24.2c-0.4,0-0.7-0.3-0.7-0.7V22c0-0.4,0.3-0.7,0.7-0.7h5.7
		c0.5,1.1,1.3,2.1,2.3,2.9H9z M21.3,24.2c-3.2,0-5.8-2.6-5.8-5.8s2.6-5.8,5.8-5.8s5.8,2.6,5.8,5.8S24.5,24.2,21.3,24.2z"/>
	<path class="st1" d="M21.3,16.3h1.4c0.4,0,0.7-0.3,0.7-0.7c0-0.4-0.3-0.7-0.7-0.7H22c0-0.4-0.3-0.7-0.7-0.7s-0.7,0.3-0.7,0.7V15
		c-1.1,0.4-1.7,1.6-1.3,2.8c0.3,0.9,1.1,1.4,2,1.4c0.4,0,0.7,0.3,0.7,0.7s-0.3,0.7-0.7,0.7h-1.4c-0.4,0-0.7,0.3-0.7,0.7
		c0,0.4,0.3,0.7,0.7,0.7h0.7c0,0.4,0.3,0.7,0.7,0.7S22,22.4,22,22v-0.1c1.1-0.4,1.7-1.6,1.3-2.8c-0.3-0.9-1.1-1.4-2-1.4
		c-0.4,0-0.7-0.3-0.7-0.7S20.9,16.3,21.3,16.3z"/>
</g>
</svg>
