<?xml version="1.0" encoding="utf-8"?>
<!-- Generator: Adobe Illustrator 24.0.1, SVG Export Plug-In . SVG Version: 6.00 Build 0)  -->
<svg version="1.1" id="Layer_1" xmlns="http://www.w3.org/2000/svg" xmlns:xlink="http://www.w3.org/1999/xlink" x="0px" y="0px"
	 viewBox="0 0 36.3 36.3" style="enable-background:new 0 0 36.3 36.3;" xml:space="preserve">
<style type="text/css">
	.st0{fill:#FF522A;}
	.st1{fill:#FFFFFF;}
</style>
<circle class="st0" cx="18.1" cy="18.1" r="18.1"/>
<path class="st1" d="M7.1,25.1c0,0.6,0.4,1,1,1h8c0.6,0,1-0.4,1-1s-0.4-1-1-1H9.2c0.5-3.4,3.5-6,6.9-6c2.8,0,5.1-2.2,5.1-5
	c0-2.8-2.2-5.1-5-5.1s-5.1,2.2-5.1,5c0,1.4,0.6,2.8,1.6,3.8C9.4,18.2,7.1,21.5,7.1,25.1z M16.1,10.1c1.7,0,3,1.3,3,3s-1.3,3-3,3
	s-3-1.3-3-3S14.5,10.1,16.1,10.1z M28.9,19.9l-2.3,2.3l2.3,2.3c0.4,0.4,0.4,1,0,1.4c-0.4,0.4-1,0.4-1.4,0c0,0,0,0,0,0l-2.3-2.3
	l-2.3,2.3c-0.4,0.4-1,0.4-1.4,0c-0.4-0.4-0.4-1,0-1.4l2.3-2.3l-2.3-2.3c-0.4-0.4-0.4-1,0-1.4c0.4-0.4,1-0.4,1.4,0l2.3,2.3l2.3-2.3
	c0.4-0.4,1-0.4,1.4,0C29.2,18.8,29.2,19.5,28.9,19.9z"/>
</svg>
