<!-- 아이콘: 전체게임보기 -->
<svg version="1.1" xmlns="http://www.w3.org/2000/svg" xmlns:xlink="http://www.w3.org/1999/xlink" x="0px" y="0px" width="16px"
	 height="17px" viewBox="0 0 16 17" style="enable-background:new 0 0 16 17;" xml:space="preserve">
<style type="text/css">
	.st0{fill-rule:evenodd;clip-rule:evenodd;fill:#402613;}
</style>
<defs>
</defs>
<g>
	<g>
		<path class="st0" d="M1.5,3h13C15.33,3,16,2.33,16,1.5C16,0.67,15.33,0,14.5,0h-13C0.67,0,0,0.67,0,1.5C0,2.33,0.67,3,1.5,3z
			 M14.5,7h-13C0.67,7,0,7.67,0,8.5C0,9.33,0.67,10,1.5,10h13c0.83,0,1.5-0.67,1.5-1.5C16,7.67,15.33,7,14.5,7z M14.5,14h-13
			C0.67,14,0,14.67,0,15.5C0,16.33,0.67,17,1.5,17h13c0.83,0,1.5-0.67,1.5-1.5C16,14.67,15.33,14,14.5,14z"/>
	</g>
</g>
</svg>
